<svg xmlns="http://www.w3.org/2000/svg" viewBox="0 0 24 24" width="16" height="16">
  <!-- 调色板图标 —— Material Design palette -->
  <path d="M12 3C6.48 3 2 7.48 2 13s4.48 10 10 10c.83 0 1.5-.67 1.5-1.5 0-.39-.15-.74-.39-1.01-.23-.26-.38-.61-.38-.99 0-.83.67-1.5 1.5-1.5H16c3.31 0 6-2.69 6-6 0-5.52-4.48-10-10-10zm-4.5 7c-.83 0-1.5-.67-1.5-1.5S6.67 7 7.5 7 9 7.67 9 8.5 8.33 10 7.5 10zm3-4c.83 0 1.5.67 1.5 1.5S11.33 9 10.5 9 9 8.33 9 7.5 9.67 6 10.5 6zm3 0c.83 0 1.5.67 1.5 1.5S14.33 9 13.5 9 12 8.33 12 7.5 12.67 6 13.5 6zm3 4c-.83 0-1.5-.67-1.5-1.5S15.67 7 16.5 7s1.5.67 1.5 1.5S17.33 10 16.5 10z" fill="#999"/>
</svg>
